<svg width="339" height="214" viewBox="0 0 339 214" fill="none" xmlns="http://www.w3.org/2000/svg">
<path d="M60.32 136.8H56.32V178.4H60.32V180H40.32V178.4H44.32V139.76L28.48 180.8H26.64L8.88 138.64V178.4H15.28V180H2.48V178.4H7.28V136.8H2.4V135.2H20.24L32.72 165.2L44.32 135.2H60.32V136.8Z" fill="#1873FB"/>
<path d="M89.9344 178.4C97.9344 178.4 101.934 173.867 101.934 164.8H103.534V180H65.9344V178.4H69.9344V136.8H65.9344V135.2H102.734V148.8H101.134C101.134 144.053 100.174 140.88 98.2544 139.28C96.3877 137.627 93.3477 136.8 89.1344 136.8H81.9344V156H85.1344C88.9744 156 91.401 155.52 92.4144 154.56C93.4277 153.6 93.9344 151.68 93.9344 148.8H95.5344V164.8H93.9344C93.9344 161.813 93.4277 159.867 92.4144 158.96C91.401 158.053 88.9744 157.6 85.1344 157.6H81.9344V178.4H89.9344ZM148.648 148.8C148.648 144.053 147.848 140.88 146.248 139.28C144.701 137.627 141.768 136.8 137.448 136.8H135.048V178.4H140.648V180H117.448V178.4H123.048V136.8H120.648C116.381 136.8 113.448 137.627 111.848 139.28C110.301 140.88 109.528 144.053 109.528 148.8H107.928V135.2H150.248V148.8H148.648ZM179.075 178.4C187.075 178.4 191.075 173.867 191.075 164.8H192.675V180H155.075V178.4H159.075V136.8H155.075V135.2H191.875V148.8H190.275C190.275 144.053 189.315 140.88 187.395 139.28C185.528 137.627 182.488 136.8 178.275 136.8H171.075V156H174.275C178.115 156 180.542 155.52 181.555 154.56C182.568 153.6 183.075 151.68 183.075 148.8H184.675V164.8H183.075C183.075 161.813 182.568 159.867 181.555 158.96C180.542 158.053 178.115 157.6 174.275 157.6H171.075V178.4H179.075ZM213.869 136.8V157.44C219.202 157.44 222.775 156.667 224.589 155.12C226.402 153.573 227.309 150.987 227.309 147.36C227.309 143.733 226.375 141.067 224.509 139.36C222.642 137.653 219.095 136.8 213.869 136.8ZM245.309 180.8H241.789C235.122 180.8 230.482 179.36 227.869 176.48C225.789 174.24 224.375 171.28 223.629 167.6C223.309 166.053 222.962 164.64 222.589 163.36C221.735 160.48 220.002 159.04 217.389 159.04H213.869V178.4H217.869V180H197.869V178.4H201.869V136.8H197.869V135.2H218.909C232.509 135.2 239.309 139.173 239.309 147.12C239.309 150.267 238.162 152.827 235.869 154.8C233.575 156.773 230.642 157.76 227.069 157.76V158.32C232.402 158.32 236.109 161.84 238.189 168.88C239.255 172.613 240.322 175.28 241.389 176.88C242.509 178.427 243.815 179.2 245.309 179.2V180.8ZM273.294 178.4C281.294 178.4 285.294 173.867 285.294 164.8H286.894V180H249.294V178.4H253.294V136.8H249.294V135.2H286.094V148.8H284.494C284.494 144.053 283.534 140.88 281.614 139.28C279.747 137.627 276.707 136.8 272.494 136.8H265.294V156H268.494C272.334 156 274.76 155.52 275.774 154.56C276.787 153.6 277.294 151.68 277.294 148.8H278.894V164.8H277.294C277.294 161.813 276.787 159.867 275.774 158.96C274.76 158.053 272.334 157.6 268.494 157.6H265.294V178.4H273.294ZM312.888 180H292.888V178.4H296.888V136.8H292.888V135.2H312.888C316.834 135.2 320.381 135.867 323.528 137.2C326.728 138.48 329.314 140.187 331.288 142.32C335.288 146.747 337.288 151.76 337.288 157.36C337.288 164.933 335.288 170.613 331.288 174.4C327.288 178.133 321.154 180 312.888 180ZM308.888 178.4C314.648 178.4 318.808 176.853 321.368 173.76C323.928 170.613 325.208 165.52 325.208 158.48C325.208 151.387 323.821 146 321.048 142.32C318.274 138.64 314.221 136.8 308.888 136.8V178.4Z" fill="white"/>
<g clip-path="url(#clip0)">
<path d="M168.224 89.2719L169.77 90.5579L171.047 89.0051L192.877 62.4727L214.3 52.8868L215.997 52.1273L215.363 50.3794L215.054 49.5264L214.32 47.504L212.357 48.3827L190.418 58.2L190.418 58.2L190.33 58.2391L189.902 58.4311L189.603 58.7939L169.131 83.6747L148.791 66.7541L147.512 65.6901L146.233 66.7541L124.045 85.2107L122.655 86.3675L123.667 87.8669L124.163 88.6028L125.4 90.436L127.1 89.0217L147.512 72.042L168.224 89.2719Z" fill="#828FBB" stroke="#828FBB" stroke-width="4"/>
<path d="M169 94.0002C172.866 94.0002 176 90.4185 176 86.0002C176 81.582 172.866 78.0002 169 78.0002C165.134 78.0002 162 81.582 162 86.0002C162 90.4185 165.134 94.0002 169 94.0002Z" fill="#1873FB"/>
<path d="M148 78C151.866 78 155 74.4183 155 70C155 65.5817 151.866 62 148 62C144.134 62 141 65.5817 141 70C141 74.4183 144.134 78 148 78Z" fill="#1873FB"/>
<path d="M126 94C129.866 94 133 90.4183 133 86C133 81.5817 129.866 78 126 78C122.134 78 119 81.5817 119 86C119 90.4183 122.134 94 126 94Z" fill="#1873FB"/>
<path d="M191 70C194.866 70 198 66.4183 198 62C198 57.5817 194.866 54 191 54C187.134 54 184 57.5817 184 62C184 66.4183 187.134 70 191 70Z" fill="#1873FB"/>
<path d="M216 58C219.866 58 223 54.4183 223 50C223 45.5817 219.866 42 216 42C212.134 42 209 45.5817 209 50C209 54.4183 212.134 58 216 58Z" fill="#1873FB"/>
</g>
<path d="M230 64C230 97.1078 202.943 124 169.5 124C136.057 124 109 97.1078 109 64C109 30.8922 136.057 4 169.5 4C202.943 4 230 30.8922 230 64Z" stroke="white" stroke-width="8"/>
<defs>
<clipPath id="clip0">
<rect width="169" height="95" fill="white" transform="translate(79)"/>
</clipPath>
</defs>
</svg>
