<svg width="350" height="249" viewBox="0 0 350 249" fill="none" xmlns="http://www.w3.org/2000/svg">
<rect width="350" height="249" fill="#04040D"/>
<path d="M172.895 115.13L174.84 116.767L176.444 114.795L211.003 72.2997L244.959 56.9273L247.059 55.9765L246.281 53.8063L245.793 52.4441L244.878 49.892L242.408 51.0101L207.778 66.6885L207.777 66.6885L207.639 66.751L207.103 66.994L206.731 67.4511L174.004 107.693L141.401 80.2543L139.791 78.8995L138.181 80.2543L103.159 109.73L101.448 111.17L102.688 113.03L103.472 114.205L105.023 116.531L107.162 114.731L139.791 87.2693L172.895 115.13Z" fill="#828FBB" stroke="#828FBB" stroke-width="5"/>
<path d="M244 65C248.971 65 253 60.299 253 54.5C253 48.701 248.971 44 244 44C239.029 44 235 48.701 235 54.5C235 60.299 239.029 65 244 65Z" fill="#1873FB"/>
<path d="M207 83C211.971 83 216 78.299 216 72.5C216 66.701 211.971 62 207 62C202.029 62 198 66.701 198 72.5C198 78.299 202.029 83 207 83Z" fill="#1873FB"/>
<path d="M174 121C178.971 121 183 116.299 183 110.5C183 104.701 178.971 100 174 100C169.029 100 165 104.701 165 110.5C165 116.299 169.029 121 174 121Z" fill="#1873FB"/>
<path d="M141 95C145.971 95 150 90.299 150 84.5C150 78.701 145.971 74 141 74C136.029 74 132 78.701 132 84.5C132 90.299 136.029 95 141 95Z" fill="#1873FB"/>
<path d="M105 121C109.971 121 114 116.299 114 110.5C114 104.701 109.971 100 105 100C100.029 100 96 104.701 96 110.5C96 116.299 100.029 121 105 121Z" fill="#1873FB"/>
<path d="M24.5938 110.125H10.9609V167H21.0391V150.164L20.5703 124.617L27.25 148.25H32.6797L40.1406 123.562L39.6719 150.164V167H49.75V110.125H36.1172L29.9844 131.492L24.5938 110.125Z" fill="#1873FB"/>
<path d="M80.0625 167.781C84.151 167.781 87.6927 166.987 90.6875 165.398C93.6823 163.81 95.8698 162.039 97.25 160.086L91.8203 154.227C90.5703 155.841 88.9427 157.052 86.9375 157.859C84.9323 158.667 82.862 159.07 80.7266 159.07C79.2161 159.07 77.8229 158.836 76.5469 158.367C75.2708 157.898 74.138 157.234 73.1484 156.375C72.1849 155.542 71.4167 154.617 70.8438 153.602C70.2708 152.56 69.8021 151.193 69.4375 149.5V149.383H98.1094V144.773C98.1094 141.674 97.6797 138.849 96.8203 136.297C95.9609 133.719 94.7109 131.518 93.0703 129.695C91.4036 127.872 89.3724 126.466 86.9766 125.477C84.6068 124.461 81.8984 123.953 78.8516 123.953C75.9089 123.953 73.1875 124.487 70.6875 125.555C68.1875 126.622 66.026 128.12 64.2031 130.047C62.3802 131.974 60.9609 134.279 59.9453 136.961C58.9297 139.617 58.4219 142.56 58.4219 145.789V147.352C58.4219 150.19 58.9297 152.859 59.9453 155.359C60.987 157.833 62.4583 159.982 64.3594 161.805C66.2604 163.654 68.5391 165.112 71.1953 166.18C73.8516 167.247 76.8073 167.781 80.0625 167.781ZM78.7734 132.742C80.1536 132.742 81.3646 132.964 82.4062 133.406C83.474 133.823 84.3724 134.396 85.1016 135.125C85.8307 135.88 86.4036 136.766 86.8203 137.781C87.237 138.797 87.4453 139.878 87.4453 141.023V141.883H69.6328C69.8932 140.503 70.2839 139.253 70.8047 138.133C71.3255 137.013 71.9766 136.049 72.7578 135.242C73.513 134.435 74.3984 133.823 75.4141 133.406C76.4297 132.964 77.5495 132.742 78.7734 132.742ZM127.523 114.383H116.664V124.734H107.016V132.742H116.664V151.961C116.664 154.747 117.029 157.143 117.758 159.148C118.487 161.128 119.529 162.755 120.883 164.031C122.211 165.333 123.812 166.297 125.688 166.922C127.589 167.521 129.698 167.82 132.016 167.82C133.214 167.82 134.424 167.755 135.648 167.625C136.898 167.521 138.096 167.365 139.242 167.156C140.388 166.948 141.469 166.688 142.484 166.375C143.5 166.036 144.385 165.646 145.141 165.203L144.086 157.742C143.591 157.872 142.992 158.003 142.289 158.133C141.612 158.263 140.883 158.38 140.102 158.484C139.294 158.615 138.448 158.719 137.562 158.797C136.703 158.875 135.857 158.914 135.023 158.914C133.878 158.914 132.836 158.784 131.898 158.523C130.987 158.263 130.206 157.82 129.555 157.195C128.904 156.596 128.396 155.789 128.031 154.773C127.693 153.732 127.523 152.443 127.523 150.906V132.742H143.305V124.734H127.523V114.383ZM176.156 167.781C180.245 167.781 183.786 166.987 186.781 165.398C189.776 163.81 191.964 162.039 193.344 160.086L187.914 154.227C186.664 155.841 185.036 157.052 183.031 157.859C181.026 158.667 178.956 159.07 176.82 159.07C175.31 159.07 173.917 158.836 172.641 158.367C171.365 157.898 170.232 157.234 169.242 156.375C168.279 155.542 167.51 154.617 166.938 153.602C166.365 152.56 165.896 151.193 165.531 149.5V149.383H194.203V144.773C194.203 141.674 193.773 138.849 192.914 136.297C192.055 133.719 190.805 131.518 189.164 129.695C187.497 127.872 185.466 126.466 183.07 125.477C180.701 124.461 177.992 123.953 174.945 123.953C172.003 123.953 169.281 124.487 166.781 125.555C164.281 126.622 162.12 128.12 160.297 130.047C158.474 131.974 157.055 134.279 156.039 136.961C155.023 139.617 154.516 142.56 154.516 145.789V147.352C154.516 150.19 155.023 152.859 156.039 155.359C157.081 157.833 158.552 159.982 160.453 161.805C162.354 163.654 164.633 165.112 167.289 166.18C169.945 167.247 172.901 167.781 176.156 167.781ZM174.867 132.742C176.247 132.742 177.458 132.964 178.5 133.406C179.568 133.823 180.466 134.396 181.195 135.125C181.924 135.88 182.497 136.766 182.914 137.781C183.331 138.797 183.539 139.878 183.539 141.023V141.883H165.727C165.987 140.503 166.378 139.253 166.898 138.133C167.419 137.013 168.07 136.049 168.852 135.242C169.607 134.435 170.492 133.823 171.508 133.406C172.523 132.964 173.643 132.742 174.867 132.742ZM234.047 123.953C231.208 123.953 228.591 124.643 226.195 126.023C223.799 127.378 221.742 129.253 220.023 131.648L219.945 130.711L219.516 124.734H209.398V167H220.258V141.609C220.753 140.411 221.378 139.37 222.133 138.484C222.888 137.599 223.799 136.87 224.867 136.297C225.753 135.802 226.755 135.438 227.875 135.203C229.021 134.943 230.297 134.812 231.703 134.812C233.057 134.812 234.477 134.904 235.961 135.086C237.471 135.242 238.943 135.49 240.375 135.828L241.977 125.008C241.117 124.747 239.984 124.513 238.578 124.305C237.198 124.07 235.688 123.953 234.047 123.953ZM272.25 167.781C276.339 167.781 279.88 166.987 282.875 165.398C285.87 163.81 288.057 162.039 289.438 160.086L284.008 154.227C282.758 155.841 281.13 157.052 279.125 157.859C277.12 158.667 275.049 159.07 272.914 159.07C271.404 159.07 270.01 158.836 268.734 158.367C267.458 157.898 266.326 157.234 265.336 156.375C264.372 155.542 263.604 154.617 263.031 153.602C262.458 152.56 261.99 151.193 261.625 149.5V149.383H290.297V144.773C290.297 141.674 289.867 138.849 289.008 136.297C288.148 133.719 286.898 131.518 285.258 129.695C283.591 127.872 281.56 126.466 279.164 125.477C276.794 124.461 274.086 123.953 271.039 123.953C268.096 123.953 265.375 124.487 262.875 125.555C260.375 126.622 258.214 128.12 256.391 130.047C254.568 131.974 253.148 134.279 252.133 136.961C251.117 139.617 250.609 142.56 250.609 145.789V147.352C250.609 150.19 251.117 152.859 252.133 155.359C253.174 157.833 254.646 159.982 256.547 161.805C258.448 163.654 260.727 165.112 263.383 166.18C266.039 167.247 268.995 167.781 272.25 167.781ZM270.961 132.742C272.341 132.742 273.552 132.964 274.594 133.406C275.661 133.823 276.56 134.396 277.289 135.125C278.018 135.88 278.591 136.766 279.008 137.781C279.424 138.797 279.633 139.878 279.633 141.023V141.883H261.82C262.081 140.503 262.471 139.253 262.992 138.133C263.513 137.013 264.164 136.049 264.945 135.242C265.701 134.435 266.586 133.823 267.602 133.406C268.617 132.964 269.737 132.742 270.961 132.742ZM298.656 145.555V146.375C298.656 149.448 299.034 152.299 299.789 154.93C300.544 157.534 301.638 159.786 303.07 161.688C304.477 163.589 306.195 165.086 308.227 166.18C310.284 167.247 312.602 167.781 315.18 167.781C317.549 167.781 319.633 167.326 321.43 166.414C323.227 165.503 324.789 164.227 326.117 162.586L326.664 167H336.469V107H325.57V128.523C324.268 127.065 322.771 125.945 321.078 125.164C319.411 124.357 317.471 123.953 315.258 123.953C312.628 123.953 310.284 124.474 308.227 125.516C306.195 126.557 304.464 128.029 303.031 129.93C301.599 131.831 300.505 134.109 299.75 136.766C299.021 139.422 298.656 142.352 298.656 145.555ZM309.516 146.375V145.555C309.516 143.784 309.672 142.13 309.984 140.594C310.297 139.031 310.792 137.664 311.469 136.492C312.146 135.346 313.018 134.448 314.086 133.797C315.18 133.12 316.495 132.781 318.031 132.781C319.88 132.781 321.417 133.185 322.641 133.992C323.865 134.773 324.841 135.88 325.57 137.312V154.422C324.841 155.828 323.852 156.935 322.602 157.742C321.378 158.549 319.828 158.953 317.953 158.953C316.417 158.953 315.115 158.628 314.047 157.977C312.979 157.326 312.107 156.427 311.43 155.281C310.753 154.161 310.258 152.846 309.945 151.336C309.659 149.799 309.516 148.146 309.516 146.375Z" fill="white"/>
</svg>
