<svg width="234" height="64" viewBox="0 0 234 64" fill="none" xmlns="http://www.w3.org/2000/svg">
<path d="M76.93 20.7H74.68V44.1H76.93V45H65.68V44.1H67.93V22.365L59.02 45.45H57.985L47.995 21.735V44.1H51.595V45H44.395V44.1H47.095V20.7H44.35V19.8H54.385L61.405 36.675L67.93 19.8H76.93V20.7Z" fill="#1873FB"/>
<path d="M93.5881 44.1C98.0881 44.1 100.338 41.55 100.338 36.45H101.238V45H80.0881V44.1H82.3381V20.7H80.0881V19.8H100.788V27.45H99.8881C99.8881 24.78 99.3481 22.995 98.2681 22.095C97.2181 21.165 95.5081 20.7 93.1381 20.7H89.0881V31.5H90.8881C93.0481 31.5 94.4131 31.23 94.9831 30.69C95.5531 30.15 95.8381 29.07 95.8381 27.45H96.7381V36.45H95.8381C95.8381 34.77 95.5531 33.675 94.9831 33.165C94.4131 32.655 93.0481 32.4 90.8881 32.4H89.0881V44.1H93.5881ZM126.615 27.45C126.615 24.78 126.165 22.995 125.265 22.095C124.395 21.165 122.745 20.7 120.315 20.7H118.965V44.1H122.115V45H109.065V44.1H112.215V20.7H110.865C108.465 20.7 106.815 21.165 105.915 22.095C105.045 22.995 104.61 24.78 104.61 27.45H103.71V19.8H127.515V27.45H126.615ZM143.73 44.1C148.23 44.1 150.48 41.55 150.48 36.45H151.38V45H130.23V44.1H132.48V20.7H130.23V19.8H150.93V27.45H150.03C150.03 24.78 149.49 22.995 148.41 22.095C147.36 21.165 145.65 20.7 143.28 20.7H139.23V31.5H141.03C143.19 31.5 144.555 31.23 145.125 30.69C145.695 30.15 145.98 29.07 145.98 27.45H146.88V36.45H145.98C145.98 34.77 145.695 33.675 145.125 33.165C144.555 32.655 143.19 32.4 141.03 32.4H139.23V44.1H143.73ZM163.301 20.7V32.31C166.301 32.31 168.311 31.875 169.331 31.005C170.351 30.135 170.861 28.68 170.861 26.64C170.861 24.6 170.336 23.1 169.286 22.14C168.236 21.18 166.241 20.7 163.301 20.7ZM180.986 45.45H179.006C175.256 45.45 172.646 44.64 171.176 43.02C170.006 41.76 169.211 40.095 168.791 38.025C168.611 37.155 168.416 36.36 168.206 35.64C167.726 34.02 166.751 33.21 165.281 33.21H163.301V44.1H165.551V45H154.301V44.1H156.551V20.7H154.301V19.8H166.136C173.786 19.8 177.611 22.035 177.611 26.505C177.611 28.275 176.966 29.715 175.676 30.825C174.386 31.935 172.736 32.49 170.726 32.49V32.805C173.726 32.805 175.811 34.785 176.981 38.745C177.581 40.845 178.181 42.345 178.781 43.245C179.411 44.115 180.146 44.55 180.986 44.55V45.45ZM196.728 44.1C201.228 44.1 203.478 41.55 203.478 36.45H204.378V45H183.228V44.1H185.478V20.7H183.228V19.8H203.928V27.45H203.028C203.028 24.78 202.488 22.995 201.408 22.095C200.358 21.165 198.648 20.7 196.278 20.7H192.228V31.5H194.028C196.188 31.5 197.553 31.23 198.123 30.69C198.693 30.15 198.978 29.07 198.978 27.45H199.878V36.45H198.978C198.978 34.77 198.693 33.675 198.123 33.165C197.553 32.655 196.188 32.4 194.028 32.4H192.228V44.1H196.728ZM218.999 45H207.749V44.1H209.999V20.7H207.749V19.8H218.999C221.219 19.8 223.214 20.175 224.984 20.925C226.784 21.645 228.239 22.605 229.349 23.805C231.599 26.295 232.724 29.115 232.724 32.265C232.724 36.525 231.599 39.72 229.349 41.85C227.099 43.95 223.649 45 218.999 45ZM216.749 44.1C219.989 44.1 222.329 43.23 223.769 41.49C225.209 39.72 225.929 36.855 225.929 32.895C225.929 28.905 225.149 25.875 223.589 23.805C222.029 21.735 219.749 20.7 216.749 20.7V44.1Z" fill="white"/>
<path d="M21.1928 39.357L21.5656 39.6488L21.8773 39.2924L28.8014 31.3752L35.6075 28.5101L36.0545 28.3219L35.8801 27.8694L35.7822 27.6156L35.5968 27.1346L35.1217 27.3346L28.1816 30.2562L28.1815 30.2562L28.1539 30.2679L28.0475 30.3127L27.9715 30.3995L21.403 37.9098L14.8524 32.7833L14.5442 32.5421L14.2361 32.7833L7.21736 38.276L6.83976 38.5715L7.1192 38.9612L7.27627 39.1802L7.58013 39.6039L7.99073 39.2825L14.5442 34.1539L21.1928 39.357Z" fill="#828FBB" stroke="#828FBB"/>
<path d="M35.4281 29.978C36.4242 29.978 37.2317 29.102 37.2317 28.0214C37.2317 26.9407 36.4242 26.0647 35.4281 26.0647C34.432 26.0647 33.6245 26.9407 33.6245 28.0214C33.6245 29.102 34.432 29.978 35.4281 29.978Z" fill="#1873FB"/>
<path d="M28.0131 33.3323C29.0092 33.3323 29.8167 32.4562 29.8167 31.3756C29.8167 30.295 29.0092 29.4189 28.0131 29.4189C27.017 29.4189 26.2095 30.295 26.2095 31.3756C26.2095 32.4562 27.017 33.3323 28.0131 33.3323Z" fill="#1873FB"/>
<path d="M21.3998 40.4133C22.3959 40.4133 23.2035 39.5373 23.2035 38.4567C23.2035 37.376 22.3959 36.5 21.3998 36.5C20.4037 36.5 19.5962 37.376 19.5962 38.4567C19.5962 39.5373 20.4037 40.4133 21.3998 40.4133Z" fill="#1873FB"/>
<path d="M14.7865 35.5686C15.7826 35.5686 16.5901 34.6926 16.5901 33.6119C16.5901 32.5313 15.7826 31.6553 14.7865 31.6553C13.7904 31.6553 12.9828 32.5313 12.9828 33.6119C12.9828 34.6926 13.7904 35.5686 14.7865 35.5686Z" fill="#1873FB"/>
<path d="M7.57194 40.4133C8.56806 40.4133 9.37558 39.5373 9.37558 38.4567C9.37558 37.376 8.56806 36.5 7.57194 36.5C6.57582 36.5 5.76831 37.376 5.76831 38.4567C5.76831 39.5373 6.57582 40.4133 7.57194 40.4133Z" fill="#1873FB"/>
<path d="M41.5 33.7862C41.5 43.7706 32.6654 52.0725 21.5 52.0725C10.3346 52.0725 1.5 43.7706 1.5 33.7862C1.5 23.8019 10.3346 15.5 21.5 15.5C32.6654 15.5 41.5 23.8019 41.5 33.7862Z" stroke="white" stroke-width="3"/>
</svg>
