<svg width="337" height="145" viewBox="0 0 337 145" fill="none" xmlns="http://www.w3.org/2000/svg">
<path d="M166.895 71.1301L168.84 72.7672L170.444 70.7947L205.003 28.2997L238.959 12.9273L241.059 11.9765L240.281 9.80626L239.793 8.44406L238.878 5.89201L236.408 7.01013L201.778 22.6885L201.777 22.6885L201.639 22.751L201.103 22.994L200.731 23.4511L168.004 63.6933L135.401 36.2543L133.791 34.8995L132.181 36.2543L97.1586 65.7299L95.448 67.1695L96.6885 69.0297L97.4722 70.2049L99.0232 72.5306L101.162 70.7306L133.791 43.2693L166.895 71.1301Z" fill="#828FBB" stroke="#828FBB" stroke-width="5"/>
<path d="M238 21C242.971 21 247 16.299 247 10.5C247 4.70101 242.971 0 238 0C233.029 0 229 4.70101 229 10.5C229 16.299 233.029 21 238 21Z" fill="#1873FB"/>
<path d="M201 39C205.971 39 210 34.299 210 28.5C210 22.701 205.971 18 201 18C196.029 18 192 22.701 192 28.5C192 34.299 196.029 39 201 39Z" fill="#1873FB"/>
<path d="M168 77C172.971 77 177 72.299 177 66.5C177 60.701 172.971 56 168 56C163.029 56 159 60.701 159 66.5C159 72.299 163.029 77 168 77Z" fill="#1873FB"/>
<path d="M135 51C139.971 51 144 46.299 144 40.5C144 34.701 139.971 30 135 30C130.029 30 126 34.701 126 40.5C126 46.299 130.029 51 135 51Z" fill="#1873FB"/>
<path d="M99 77C103.971 77 108 72.299 108 66.5C108 60.701 103.971 56 99 56C94.0294 56 90 60.701 90 66.5C90 72.299 94.0294 77 99 77Z" fill="#1873FB"/>
<path d="M18.5938 66.125H4.96094V123H15.0391V106.164L14.5703 80.6172L21.25 104.25H26.6797L34.1406 79.5625L33.6719 106.164V123H43.75V66.125H30.1172L23.9844 87.4922L18.5938 66.125Z" fill="#1873FB"/>
<path d="M74.0625 123.781C78.151 123.781 81.6927 122.987 84.6875 121.398C87.6823 119.81 89.8698 118.039 91.25 116.086L85.8203 110.227C84.5703 111.841 82.9427 113.052 80.9375 113.859C78.9323 114.667 76.862 115.07 74.7266 115.07C73.2161 115.07 71.8229 114.836 70.5469 114.367C69.2708 113.898 68.138 113.234 67.1484 112.375C66.1849 111.542 65.4167 110.617 64.8438 109.602C64.2708 108.56 63.8021 107.193 63.4375 105.5V105.383H92.1094V100.773C92.1094 97.6745 91.6797 94.849 90.8203 92.2969C89.9609 89.7188 88.7109 87.5182 87.0703 85.6953C85.4036 83.8724 83.3724 82.4661 80.9766 81.4766C78.6068 80.4609 75.8984 79.9531 72.8516 79.9531C69.9089 79.9531 67.1875 80.487 64.6875 81.5547C62.1875 82.6224 60.026 84.1198 58.2031 86.0469C56.3802 87.974 54.9609 90.2786 53.9453 92.9609C52.9297 95.6172 52.4219 98.5599 52.4219 101.789V103.352C52.4219 106.19 52.9297 108.859 53.9453 111.359C54.987 113.833 56.4583 115.982 58.3594 117.805C60.2604 119.654 62.5391 121.112 65.1953 122.18C67.8516 123.247 70.8073 123.781 74.0625 123.781ZM72.7734 88.7422C74.1536 88.7422 75.3646 88.9635 76.4062 89.4062C77.474 89.8229 78.3724 90.3958 79.1016 91.125C79.8307 91.8802 80.4036 92.7656 80.8203 93.7812C81.237 94.7969 81.4453 95.8776 81.4453 97.0234V97.8828H63.6328C63.8932 96.5026 64.2839 95.2526 64.8047 94.1328C65.3255 93.013 65.9766 92.0495 66.7578 91.2422C67.513 90.4349 68.3984 89.8229 69.4141 89.4062C70.4297 88.9635 71.5495 88.7422 72.7734 88.7422ZM121.523 70.3828H110.664V80.7344H101.016V88.7422H110.664V107.961C110.664 110.747 111.029 113.143 111.758 115.148C112.487 117.128 113.529 118.755 114.883 120.031C116.211 121.333 117.812 122.297 119.688 122.922C121.589 123.521 123.698 123.82 126.016 123.82C127.214 123.82 128.424 123.755 129.648 123.625C130.898 123.521 132.096 123.365 133.242 123.156C134.388 122.948 135.469 122.688 136.484 122.375C137.5 122.036 138.385 121.646 139.141 121.203L138.086 113.742C137.591 113.872 136.992 114.003 136.289 114.133C135.612 114.263 134.883 114.38 134.102 114.484C133.294 114.615 132.448 114.719 131.562 114.797C130.703 114.875 129.857 114.914 129.023 114.914C127.878 114.914 126.836 114.784 125.898 114.523C124.987 114.263 124.206 113.82 123.555 113.195C122.904 112.596 122.396 111.789 122.031 110.773C121.693 109.732 121.523 108.443 121.523 106.906V88.7422H137.305V80.7344H121.523V70.3828ZM170.156 123.781C174.245 123.781 177.786 122.987 180.781 121.398C183.776 119.81 185.964 118.039 187.344 116.086L181.914 110.227C180.664 111.841 179.036 113.052 177.031 113.859C175.026 114.667 172.956 115.07 170.82 115.07C169.31 115.07 167.917 114.836 166.641 114.367C165.365 113.898 164.232 113.234 163.242 112.375C162.279 111.542 161.51 110.617 160.938 109.602C160.365 108.56 159.896 107.193 159.531 105.5V105.383H188.203V100.773C188.203 97.6745 187.773 94.849 186.914 92.2969C186.055 89.7188 184.805 87.5182 183.164 85.6953C181.497 83.8724 179.466 82.4661 177.07 81.4766C174.701 80.4609 171.992 79.9531 168.945 79.9531C166.003 79.9531 163.281 80.487 160.781 81.5547C158.281 82.6224 156.12 84.1198 154.297 86.0469C152.474 87.974 151.055 90.2786 150.039 92.9609C149.023 95.6172 148.516 98.5599 148.516 101.789V103.352C148.516 106.19 149.023 108.859 150.039 111.359C151.081 113.833 152.552 115.982 154.453 117.805C156.354 119.654 158.633 121.112 161.289 122.18C163.945 123.247 166.901 123.781 170.156 123.781ZM168.867 88.7422C170.247 88.7422 171.458 88.9635 172.5 89.4062C173.568 89.8229 174.466 90.3958 175.195 91.125C175.924 91.8802 176.497 92.7656 176.914 93.7812C177.331 94.7969 177.539 95.8776 177.539 97.0234V97.8828H159.727C159.987 96.5026 160.378 95.2526 160.898 94.1328C161.419 93.013 162.07 92.0495 162.852 91.2422C163.607 90.4349 164.492 89.8229 165.508 89.4062C166.523 88.9635 167.643 88.7422 168.867 88.7422ZM228.047 79.9531C225.208 79.9531 222.591 80.6432 220.195 82.0234C217.799 83.3776 215.742 85.2526 214.023 87.6484L213.945 86.7109L213.516 80.7344H203.398V123H214.258V97.6094C214.753 96.4115 215.378 95.3698 216.133 94.4844C216.888 93.599 217.799 92.8698 218.867 92.2969C219.753 91.8021 220.755 91.4375 221.875 91.2031C223.021 90.9427 224.297 90.8125 225.703 90.8125C227.057 90.8125 228.477 90.9036 229.961 91.0859C231.471 91.2422 232.943 91.4896 234.375 91.8281L235.977 81.0078C235.117 80.7474 233.984 80.513 232.578 80.3047C231.198 80.0703 229.688 79.9531 228.047 79.9531ZM266.25 123.781C270.339 123.781 273.88 122.987 276.875 121.398C279.87 119.81 282.057 118.039 283.438 116.086L278.008 110.227C276.758 111.841 275.13 113.052 273.125 113.859C271.12 114.667 269.049 115.07 266.914 115.07C265.404 115.07 264.01 114.836 262.734 114.367C261.458 113.898 260.326 113.234 259.336 112.375C258.372 111.542 257.604 110.617 257.031 109.602C256.458 108.56 255.99 107.193 255.625 105.5V105.383H284.297V100.773C284.297 97.6745 283.867 94.849 283.008 92.2969C282.148 89.7188 280.898 87.5182 279.258 85.6953C277.591 83.8724 275.56 82.4661 273.164 81.4766C270.794 80.4609 268.086 79.9531 265.039 79.9531C262.096 79.9531 259.375 80.487 256.875 81.5547C254.375 82.6224 252.214 84.1198 250.391 86.0469C248.568 87.974 247.148 90.2786 246.133 92.9609C245.117 95.6172 244.609 98.5599 244.609 101.789V103.352C244.609 106.19 245.117 108.859 246.133 111.359C247.174 113.833 248.646 115.982 250.547 117.805C252.448 119.654 254.727 121.112 257.383 122.18C260.039 123.247 262.995 123.781 266.25 123.781ZM264.961 88.7422C266.341 88.7422 267.552 88.9635 268.594 89.4062C269.661 89.8229 270.56 90.3958 271.289 91.125C272.018 91.8802 272.591 92.7656 273.008 93.7812C273.424 94.7969 273.633 95.8776 273.633 97.0234V97.8828H255.82C256.081 96.5026 256.471 95.2526 256.992 94.1328C257.513 93.013 258.164 92.0495 258.945 91.2422C259.701 90.4349 260.586 89.8229 261.602 89.4062C262.617 88.9635 263.737 88.7422 264.961 88.7422ZM292.656 101.555V102.375C292.656 105.448 293.034 108.299 293.789 110.93C294.544 113.534 295.638 115.786 297.07 117.688C298.477 119.589 300.195 121.086 302.227 122.18C304.284 123.247 306.602 123.781 309.18 123.781C311.549 123.781 313.633 123.326 315.43 122.414C317.227 121.503 318.789 120.227 320.117 118.586L320.664 123H330.469V63H319.57V84.5234C318.268 83.0651 316.771 81.9453 315.078 81.1641C313.411 80.3568 311.471 79.9531 309.258 79.9531C306.628 79.9531 304.284 80.474 302.227 81.5156C300.195 82.5573 298.464 84.0286 297.031 85.9297C295.599 87.8307 294.505 90.1094 293.75 92.7656C293.021 95.4219 292.656 98.3516 292.656 101.555ZM303.516 102.375V101.555C303.516 99.7839 303.672 98.1302 303.984 96.5938C304.297 95.0312 304.792 93.6641 305.469 92.4922C306.146 91.3464 307.018 90.4479 308.086 89.7969C309.18 89.1198 310.495 88.7812 312.031 88.7812C313.88 88.7812 315.417 89.1849 316.641 89.9922C317.865 90.7734 318.841 91.8802 319.57 93.3125V110.422C318.841 111.828 317.852 112.935 316.602 113.742C315.378 114.549 313.828 114.953 311.953 114.953C310.417 114.953 309.115 114.628 308.047 113.977C306.979 113.326 306.107 112.427 305.43 111.281C304.753 110.161 304.258 108.846 303.945 107.336C303.659 105.799 303.516 104.146 303.516 102.375Z" fill="white"/>
</svg>
