<svg width="96" height="53" viewBox="0 0 96 53" fill="none" xmlns="http://www.w3.org/2000/svg">
<path d="M47.3639 42.4848L48.1356 43.1248L48.7736 42.3516L66.1807 21.2573L83.303 13.6182L84.1537 13.2387L83.8353 12.3632L83.5899 11.6885L83.223 10.6797L82.2427 11.117L64.8367 18.883L64.8366 18.883L64.7673 18.9139L64.5529 19.0096L64.4035 19.1906L47.7859 39.3275L31.1931 25.5654L30.5547 25.0359L29.9163 25.5654L12.3133 40.1654L11.6152 40.7444L12.1235 41.4955L12.5174 42.0776L13.1353 42.9908L13.984 42.2869L30.5547 28.543L47.3639 42.4848Z" fill="#828FBB" stroke="#828FBB" stroke-width="2"/>
<path d="M82.9319 17.8318C85.4302 17.8318 87.4555 15.5033 87.4555 12.6309C87.4555 9.75847 85.4302 7.42993 82.9319 7.42993C80.4336 7.42993 78.4084 9.75847 78.4084 12.6309C78.4084 15.5033 80.4336 17.8318 82.9319 17.8318Z" fill="#1873FB"/>
<path d="M64.3351 26.7476C66.8334 26.7476 68.8587 24.419 68.8587 21.5466C68.8587 18.6742 66.8334 16.3457 64.3351 16.3457C61.8368 16.3457 59.8115 18.6742 59.8115 21.5466C59.8115 24.419 61.8368 26.7476 64.3351 26.7476Z" fill="#1873FB"/>
<path d="M47.7487 45.5701C50.247 45.5701 52.2723 43.2415 52.2723 40.3691C52.2723 37.4968 50.247 35.1682 47.7487 35.1682C45.2504 35.1682 43.2251 37.4968 43.2251 40.3691C43.2251 43.2415 45.2504 45.5701 47.7487 45.5701Z" fill="#1873FB"/>
<path d="M31.1623 32.6917C33.6606 32.6917 35.6859 30.3631 35.6859 27.4907C35.6859 24.6183 33.6606 22.2898 31.1623 22.2898C28.664 22.2898 26.6387 24.6183 26.6387 27.4907C26.6387 30.3631 28.664 32.6917 31.1623 32.6917Z" fill="#1873FB"/>
<path d="M13.0681 45.5701C15.5664 45.5701 17.5916 43.2415 17.5916 40.3691C17.5916 37.4968 15.5664 35.1682 13.0681 35.1682C10.5698 35.1682 8.54451 37.4968 8.54451 40.3691C8.54451 43.2415 10.5698 45.5701 13.0681 45.5701Z" fill="#1873FB"/>
</svg>
