<svg width="82" height="82" viewBox="0 0 82 82" fill="none" xmlns="http://www.w3.org/2000/svg">
<path d="M40.3539 52.4893L41.1366 53.1549L41.7808 52.3545L54.9817 35.953L67.9488 30.0216L68.7813 29.6407L68.4752 28.7779L68.2887 28.2518L67.9235 27.2225L66.9302 27.6768L53.6956 33.7309L53.6955 33.7309L53.6428 33.755L53.4279 33.8533L53.2798 34.0374L40.8036 49.5379L28.3833 38.9759L27.7355 38.4251L27.0877 38.9759L13.7032 50.3577L13.0286 50.9313L13.5164 51.6703L13.8159 52.1241L14.438 53.0667L15.2983 52.3351L27.7355 41.7589L40.3539 52.4893Z" fill="#828FBB" stroke="#828FBB" stroke-width="2"/>
<path d="M67.5605 33.109C69.4601 33.109 71 31.2937 71 29.0545C71 26.8153 69.4601 25 67.5605 25C65.6609 25 64.121 26.8153 64.121 29.0545C64.121 31.2937 65.6609 33.109 67.5605 33.109Z" fill="#1873FB"/>
<path d="M53.4204 40.0594C55.32 40.0594 56.8599 38.2442 56.8599 36.0049C56.8599 33.7657 55.32 31.9504 53.4204 31.9504C51.5208 31.9504 49.9809 33.7657 49.9809 36.0049C49.9809 38.2442 51.5208 40.0594 53.4204 40.0594Z" fill="#1873FB"/>
<path d="M40.8089 54.7328C42.7085 54.7328 44.2484 52.9175 44.2484 50.6783C44.2484 48.439 42.7085 46.6238 40.8089 46.6238C38.9093 46.6238 37.3694 48.439 37.3694 50.6783C37.3694 52.9175 38.9093 54.7328 40.8089 54.7328Z" fill="#1873FB"/>
<path d="M28.1975 44.6932C30.097 44.6932 31.6369 42.8779 31.6369 40.6387C31.6369 38.3995 30.097 36.5842 28.1975 36.5842C26.2979 36.5842 24.758 38.3995 24.758 40.6387C24.758 42.8779 26.2979 44.6932 28.1975 44.6932Z" fill="#1873FB"/>
<path d="M14.4395 54.7328C16.3391 54.7328 17.879 52.9175 17.879 50.6783C17.879 48.439 16.3391 46.6238 14.4395 46.6238C12.5399 46.6238 11 48.439 11 50.6783C11 52.9175 12.5399 54.7328 14.4395 54.7328Z" fill="#1873FB"/>
<circle cx="41" cy="41" r="39" stroke="white" stroke-width="4"/>
</svg>
