<svg width="3932" height="3442" viewBox="0 0 3932 3442" fill="none" xmlns="http://www.w3.org/2000/svg">
<path d="M2081.56 799.238H2063.09V292.999C2063.09 215.29 2032.22 140.765 1977.29 85.8173C1922.36 30.8694 1847.85 0 1770.16 0H697.885C620.196 0 545.689 30.8694 490.755 85.8173C435.82 140.765 404.958 215.29 404.958 292.999V3070.27C404.958 3147.98 435.82 3222.5 490.755 3277.45C545.689 3332.4 620.196 3363.27 697.885 3363.27H1770.16C1847.85 3363.27 1922.36 3332.4 1977.29 3277.45C2032.22 3222.5 2063.09 3147.98 2063.09 3070.27V1159.59H2081.56V799.238Z" fill="#141322"/>
<path d="M1781.98 76.2275H1642.01C1648.44 92.0122 1650.9 109.138 1649.16 126.095C1647.42 143.053 1641.54 159.323 1632.03 173.472C1622.53 187.62 1609.69 199.213 1594.65 207.23C1579.61 215.247 1562.83 219.441 1545.78 219.443H931.493C914.45 219.44 897.67 215.246 882.63 207.229C867.59 199.212 854.752 187.618 845.247 173.47C835.742 159.321 829.861 143.051 828.122 126.094C826.384 109.136 828.842 92.0113 835.278 76.2275H704.553C646.535 76.2275 590.894 99.2805 549.87 140.315C508.845 181.35 485.798 237.004 485.798 295.036V3068.24C485.801 3126.27 508.849 3181.92 549.873 3222.96C590.897 3263.99 646.537 3287.04 704.553 3287.04H1781.98C1810.71 3287.04 1839.15 3281.38 1865.7 3270.39C1892.24 3259.4 1916.35 3243.28 1936.67 3222.96C1956.98 3202.65 1973.1 3178.53 1984.09 3151.98C1995.09 3125.43 2000.75 3096.98 2000.75 3068.25V3068.24V295.036C2000.75 237.004 1977.7 181.35 1936.68 140.315C1895.65 99.2805 1840.01 76.2275 1782 76.2275H1781.98Z" fill="#04040D"/>
<path d="M2774.49 3283.34H2693.11L2654.39 2969.35H2774.51L2774.49 3283.34Z" fill="#D07E65"/>
<path d="M2611 3260.07H2791.93V3358.92H2536.15V3334.94C2536.15 3315.08 2544.04 3296.04 2558.07 3282C2572.11 3267.96 2591.15 3260.07 2611 3260.07Z" fill="#04040D"/>
<path d="M3099.77 3283.34H3018.39L2979.67 2969.35H3099.79L3099.77 3283.34Z" fill="#D07E65"/>
<path d="M2936.28 3260.07H3117.21V3358.92H2861.43V3334.94C2861.43 3315.08 2869.32 3296.04 2883.36 3282C2897.39 3267.96 2916.43 3260.07 2936.28 3260.07Z" fill="#04040D"/>
<path d="M2632.7 2378.17C2639.34 2371.95 2644.53 2364.34 2647.91 2355.89C2651.29 2347.44 2652.78 2338.35 2652.27 2329.26C2651.76 2320.17 2649.26 2311.3 2644.95 2303.29C2640.65 2295.27 2634.63 2288.29 2627.34 2282.85L2662.21 2144.91L2583.57 2103.27L2537.07 2298.76C2528.73 2311.63 2525.4 2327.1 2527.72 2342.25C2530.03 2357.41 2537.82 2371.18 2549.61 2380.98C2561.4 2390.77 2576.38 2395.89 2591.69 2395.37C2607.01 2394.86 2621.6 2388.74 2632.71 2378.17H2632.7Z" fill="#D07E65"/>
<path d="M3128.72 2137.24L3122.08 2602.04L3115.45 3212.92L2969.41 3199.64L2896.38 2356.36L2803.44 3199.64H2652.66L2637.48 2349.71L2690.59 2163.8L3128.72 2137.24Z" fill="#04040D"/>
<path d="M2676.01 2166.64L2673.88 2165.67L2757.11 1596.24L2714.79 1424.12C2712.59 1415.17 2713.75 1405.72 2718.06 1397.56C2722.36 1389.4 2729.5 1383.11 2738.13 1379.87L2814.27 1351.31L2841.16 1277.33L3053.37 1300.2L3058.59 1358.04C3081.59 1365.41 3270.95 1428.49 3257.88 1500.36C3244.99 1571.31 3168.84 1794.51 3164.98 1805.82L3151.65 2125.93L3150.01 2126.75C3148.04 2127.75 3001.77 2199.67 2842.86 2199.67C2786.92 2199.65 2729.36 2190.73 2676.01 2166.64Z" fill="#1873FB"/>
<path d="M2534.31 2226.41L2601.21 1798.12C2601.61 1795.6 2641.2 1544.87 2654.32 1466.09C2667.9 1384.75 2730.83 1383.81 2731.46 1383.81H2766.1L2806.62 1566.2L2726.8 1932.14L2653.15 2235.4L2534.31 2226.41Z" fill="#1873FB"/>
<path d="M2968.28 2184.14C2968.71 2175.05 2971.13 2166.16 2975.37 2158.1C2979.6 2150.05 2985.55 2143.02 2992.8 2137.51C3000.04 2132 3008.41 2128.15 3017.3 2126.23C3026.2 2124.3 3035.4 2124.35 3044.28 2126.37L3126.59 2010.34L3209.29 2043.17L3090.75 2205.4C3086.37 2220.09 3076.75 2232.66 3063.73 2240.73C3050.7 2248.81 3035.16 2251.82 3020.06 2249.19C3004.96 2246.57 2991.35 2238.5 2981.81 2226.51C2972.26 2214.51 2967.45 2199.43 2968.28 2184.13V2184.14Z" fill="#D07E65"/>
<path d="M3058.58 2084.35L3204.95 1838.14L3145.32 1679.09L3226.53 1462.46L3229.55 1463.75C3231.51 1464.59 3277.65 1485.19 3284.5 1558.95L3377.83 1852.34L3128.75 2175.55L3058.58 2084.35Z" fill="#1873FB"/>
<path d="M2938.96 1240.74C3023.35 1240.74 3091.75 1172.31 3091.75 1087.91C3091.75 1003.5 3023.35 935.074 2938.96 935.074C2854.57 935.074 2786.17 1003.5 2786.17 1087.91C2786.17 1172.31 2854.57 1240.74 2938.96 1240.74Z" fill="#D07E65"/>
<path d="M2836.4 1013.45C2852.22 1032.17 2878.99 1037.45 2903.68 1039.6C2953.83 1044 3026.74 1036.86 3075.75 1025.55C3079.27 1059.45 3069.71 1096.02 3089.68 1123.91C3099.04 1090.14 3104.48 1055.41 3105.9 1020.39C3106.5 1005.38 3106.26 989.84 3100.16 976.055C3094.06 962.27 3080.76 950.567 3065.44 950.446C3076.82 941.811 3090.15 936.111 3104.26 933.85L3055.75 909.464L3068.21 896.67L2980.37 891.294L3005.81 875.13C2967.51 869.869 2928.76 868.65 2890.2 871.494C2872.3 872.811 2853.59 875.331 2839.09 885.706C2824.59 896.081 2816.21 916.696 2825.21 931.924C2813.94 933.776 2803.33 938.475 2794.38 945.576C2785.43 952.678 2778.45 961.946 2774.08 972.504C2767.62 988.899 2768.21 1007.11 2770.2 1024.58C2773.51 1052.52 2780 1079.99 2789.55 1106.46" fill="#04040D"/>
<path d="M3931.83 3358.94H0V3369H3931.83V3358.94Z" fill="#E6E6E6"/>
<rect width="1430" height="2886" transform="translate(536 295)" fill="#04040D"/>
<path d="M927.5 1358H915V1488H927.5V1493H865V1488H877.5V1367.25L828 1495.5H822.25L766.75 1363.75V1488H786.75V1493H746.75V1488H761.75V1358H746.5V1353H802.25L841.25 1446.75L877.5 1353H927.5V1358Z" fill="#1873FB"/>
<path d="M1020.04 1488C1045.04 1488 1057.54 1473.83 1057.54 1445.5H1062.54V1493H945.045V1488H957.545V1358H945.045V1353H1060.04V1395.5H1055.04C1055.04 1380.67 1052.04 1370.75 1046.04 1365.75C1040.21 1360.58 1030.71 1358 1017.54 1358H995.045V1418H1005.04C1017.04 1418 1024.63 1416.5 1027.79 1413.5C1030.96 1410.5 1032.54 1404.5 1032.54 1395.5H1037.54V1445.5H1032.54C1032.54 1436.17 1030.96 1430.08 1027.79 1427.25C1024.63 1424.42 1017.04 1423 1005.04 1423H995.045V1488H1020.04ZM1203.53 1395.5C1203.53 1380.67 1201.03 1370.75 1196.03 1365.75C1191.19 1360.58 1182.03 1358 1168.53 1358H1161.03V1488H1178.53V1493H1106.03V1488H1123.53V1358H1116.03C1102.69 1358 1093.53 1360.58 1088.53 1365.75C1083.69 1370.75 1081.28 1380.67 1081.28 1395.5H1076.28V1353H1208.53V1395.5H1203.53ZM1298.61 1488C1323.61 1488 1336.11 1473.83 1336.11 1445.5H1341.11V1493H1223.61V1488H1236.11V1358H1223.61V1353H1338.61V1395.5H1333.61C1333.61 1380.67 1330.61 1370.75 1324.61 1365.75C1318.78 1360.58 1309.28 1358 1296.11 1358H1273.61V1418H1283.61C1295.61 1418 1303.19 1416.5 1306.36 1413.5C1309.53 1410.5 1311.11 1404.5 1311.11 1395.5H1316.11V1445.5H1311.11C1311.11 1436.17 1309.53 1430.08 1306.36 1427.25C1303.19 1424.42 1295.61 1423 1283.61 1423H1273.61V1488H1298.61ZM1407.34 1358V1422.5C1424.01 1422.5 1435.17 1420.08 1440.84 1415.25C1446.51 1410.42 1449.34 1402.33 1449.34 1391C1449.34 1379.67 1446.42 1371.33 1440.59 1366C1434.76 1360.67 1423.67 1358 1407.34 1358ZM1505.59 1495.5H1494.59C1473.76 1495.5 1459.26 1491 1451.09 1482C1444.59 1475 1440.17 1465.75 1437.84 1454.25C1436.84 1449.42 1435.76 1445 1434.59 1441C1431.92 1432 1426.51 1427.5 1418.34 1427.5H1407.34V1488H1419.84V1493H1357.34V1488H1369.84V1358H1357.34V1353H1423.09C1465.59 1353 1486.84 1365.42 1486.84 1390.25C1486.84 1400.08 1483.26 1408.08 1476.09 1414.25C1468.92 1420.42 1459.76 1423.5 1448.59 1423.5V1425.25C1465.26 1425.25 1476.84 1436.25 1483.34 1458.25C1486.67 1469.92 1490.01 1478.25 1493.34 1483.25C1496.84 1488.08 1500.92 1490.5 1505.59 1490.5V1495.5ZM1593.04 1488C1618.04 1488 1630.54 1473.83 1630.54 1445.5H1635.54V1493H1518.04V1488H1530.54V1358H1518.04V1353H1633.04V1395.5H1628.04C1628.04 1380.67 1625.04 1370.75 1619.04 1365.75C1613.21 1360.58 1603.71 1358 1590.54 1358H1568.04V1418H1578.04C1590.04 1418 1597.63 1416.5 1600.79 1413.5C1603.96 1410.5 1605.54 1404.5 1605.54 1395.5H1610.54V1445.5H1605.54C1605.54 1436.17 1603.96 1430.08 1600.79 1427.25C1597.63 1424.42 1590.04 1423 1578.04 1423H1568.04V1488H1593.04ZM1716.77 1493H1654.27V1488H1666.77V1358H1654.27V1353H1716.77C1729.11 1353 1740.19 1355.08 1750.02 1359.25C1760.02 1363.25 1768.11 1368.58 1774.27 1375.25C1786.77 1389.08 1793.02 1404.75 1793.02 1422.25C1793.02 1445.92 1786.77 1463.67 1774.27 1475.5C1761.77 1487.17 1742.61 1493 1716.77 1493ZM1704.27 1488C1722.27 1488 1735.27 1483.17 1743.27 1473.5C1751.27 1463.67 1755.27 1447.75 1755.27 1425.75C1755.27 1403.58 1750.94 1386.75 1742.27 1375.25C1733.61 1363.75 1720.94 1358 1704.27 1358V1488Z" fill="white"/>
<path d="M1246.17 1199.12L1252.02 1204.06L1256.84 1198.11L1331.44 1105.95L1404.59 1072.68L1410.87 1069.83L1408.55 1063.33L1407.49 1060.37L1404.75 1052.68L1397.32 1056.06L1322.26 1090.2L1322.26 1090.2L1321.96 1090.34L1320.35 1091.07L1319.24 1092.45L1249.64 1178.42L1180.61 1120.05L1175.77 1115.95L1170.92 1120.05L1095.01 1184.23L1089.91 1188.54L1093.61 1194.11L1095.3 1196.67L1099.96 1203.68L1106.4 1198.25L1175.77 1139.59L1246.17 1199.12Z" fill="#828FBB" stroke="#828FBB" stroke-width="15"/>
<path d="M1099.46 1233.3C1115.46 1233.3 1128.43 1218.57 1128.43 1200.41C1128.43 1182.24 1115.46 1167.51 1099.46 1167.51C1083.47 1167.51 1070.5 1182.24 1070.5 1200.41C1070.5 1218.57 1083.47 1233.3 1099.46 1233.3Z" fill="#1873FB"/>
<path d="M1177.47 1167.51C1193.47 1167.51 1206.44 1152.78 1206.44 1134.61C1206.44 1116.44 1193.47 1101.71 1177.47 1101.71C1161.48 1101.71 1148.51 1116.44 1148.51 1134.61C1148.51 1152.78 1161.48 1167.51 1177.47 1167.51Z" fill="#1873FB"/>
<path d="M1255.49 1225.56C1271.48 1225.56 1284.45 1210.83 1284.45 1192.67C1284.45 1174.5 1271.48 1159.77 1255.49 1159.77C1239.49 1159.77 1226.52 1174.5 1226.52 1192.67C1226.52 1210.83 1239.49 1225.56 1255.49 1225.56Z" fill="#1873FB"/>
<path d="M1401.47 1095.52C1417.46 1095.52 1430.43 1080.79 1430.43 1062.62C1430.43 1044.45 1417.46 1029.72 1401.47 1029.72C1385.47 1029.72 1372.5 1044.45 1372.5 1062.62C1372.5 1080.79 1385.47 1095.52 1401.47 1095.52Z" fill="#1873FB"/>
<path d="M1313.41 1135C1329.41 1135 1342.38 1120.27 1342.38 1102.1C1342.38 1083.93 1329.41 1069.2 1313.41 1069.2C1297.42 1069.2 1284.45 1083.93 1284.45 1102.1C1284.45 1120.27 1297.42 1135 1313.41 1135Z" fill="#1873FB"/>
<circle cx="1251" cy="1126" r="215" stroke="white" stroke-width="14"/>
<ellipse cx="2320.5" cy="3405.5" rx="1119.5" ry="36.5" fill="#C4C4C4"/>
</svg>
