<svg width="6160" height="5089" viewBox="0 0 6160 5089" fill="none" xmlns="http://www.w3.org/2000/svg">
<rect x="3649" width="1482.06" height="1845" transform="rotate(43.7399 3649 0)" fill="#282844"/>
<rect x="4933.58" y="1229.28" width="1482.06" height="1845" transform="rotate(43.7399 4933.58 1229.28)" fill="#282844"/>
<rect x="3496.19" y="2731.33" width="1482.06" height="1845" transform="rotate(43.7399 3496.19 2731.33)" fill="url(#paint0_linear)"/>
<rect x="2211.61" y="1495" width="1482.06" height="1845" transform="rotate(43.7399 2211.61 1495)" fill="url(#paint1_linear)"/>
<path d="M4436.56 1143.24H4418.09V636.999C4418.09 559.29 4387.22 484.765 4332.29 429.817C4277.36 374.869 4202.85 344 4125.16 344H3052.89C2975.2 344 2900.69 374.869 2845.75 429.817C2790.82 484.765 2759.96 559.29 2759.96 636.999V3414.27C2759.96 3491.98 2790.82 3566.5 2845.75 3621.45C2900.69 3676.4 2975.2 3707.27 3052.89 3707.27H4125.16C4202.85 3707.27 4277.36 3676.4 4332.29 3621.45C4387.22 3566.5 4418.09 3491.98 4418.09 3414.27V1503.59H4436.56V1143.24Z" fill="#141322"/>
<path d="M4136.98 420.228H3997.01C4003.44 436.012 4005.9 453.138 4004.16 470.095C4002.42 487.053 3996.54 503.323 3987.03 517.472C3977.53 531.62 3964.69 543.213 3949.65 551.23C3934.61 559.247 3917.83 563.441 3900.78 563.443H3286.49C3269.45 563.44 3252.67 559.246 3237.63 551.229C3222.59 543.212 3209.75 531.618 3200.25 517.47C3190.74 503.321 3184.86 487.051 3183.12 470.094C3181.38 453.136 3183.84 436.011 3190.28 420.228H3059.55C3001.54 420.228 2945.89 443.28 2904.87 484.315C2863.85 525.35 2840.8 581.004 2840.8 639.036V3412.24C2840.8 3470.27 2863.85 3525.92 2904.87 3566.96C2945.9 3607.99 3001.54 3631.04 3059.55 3631.04H4136.98C4165.71 3631.04 4194.15 3625.38 4220.7 3614.39C4247.24 3603.4 4271.35 3587.28 4291.67 3566.96C4311.98 3546.65 4328.1 3522.53 4339.09 3495.98C4350.09 3469.43 4355.75 3440.98 4355.75 3412.25V3412.24V639.036C4355.75 581.004 4332.7 525.35 4291.68 484.315C4250.65 443.28 4195.01 420.228 4137 420.228H4136.98Z" fill="#04040D"/>
<path d="M5129.49 3627.34H5048.11L5009.39 3313.35H5129.51L5129.49 3627.34Z" fill="#D07E65"/>
<path d="M4966 3604.07H5146.93V3702.92H4891.15V3678.94C4891.15 3659.08 4899.04 3640.04 4913.07 3626C4927.11 3611.96 4946.15 3604.07 4966 3604.07V3604.07Z" fill="#04040D"/>
<path d="M5454.77 3627.34H5373.39L5334.67 3313.35H5454.79L5454.77 3627.34Z" fill="#D07E65"/>
<path d="M5291.28 3604.07H5472.21V3702.92H5216.43V3678.94C5216.43 3659.08 5224.32 3640.04 5238.36 3626C5252.39 3611.96 5271.43 3604.07 5291.28 3604.07Z" fill="#04040D"/>
<path d="M4987.7 2722.17C4994.34 2715.95 4999.53 2708.34 5002.91 2699.89C5006.29 2691.44 5007.78 2682.35 5007.27 2673.26C5006.76 2664.17 5004.26 2655.3 4999.95 2647.29C4995.65 2639.27 4989.63 2632.29 4982.34 2626.85L5017.21 2488.91L4938.57 2447.27L4892.07 2642.76C4883.73 2655.63 4880.4 2671.1 4882.72 2686.25C4885.03 2701.41 4892.82 2715.18 4904.61 2724.98C4916.4 2734.77 4931.38 2739.89 4946.69 2739.37C4962.01 2738.86 4976.6 2732.74 4987.71 2722.17H4987.7Z" fill="#D07E65"/>
<path d="M5483.72 2481.24L5477.08 2946.04L5470.45 3556.92L5324.41 3543.64L5251.38 2700.36L5158.44 3543.64H5007.66L4992.48 2693.71L5045.59 2507.8L5483.72 2481.24Z" fill="#04040D"/>
<path d="M5031.01 2510.64L5028.88 2509.67L5112.11 1940.24L5069.79 1768.12C5067.59 1759.17 5068.75 1749.72 5073.06 1741.56C5077.36 1733.4 5084.5 1727.11 5093.13 1723.87L5169.27 1695.31L5196.16 1621.33L5408.37 1644.2L5413.59 1702.04C5436.59 1709.41 5625.95 1772.49 5612.88 1844.36C5599.99 1915.31 5523.84 2138.51 5519.98 2149.82L5506.65 2469.93L5505.01 2470.75C5503.04 2471.75 5356.77 2543.67 5197.86 2543.67C5141.92 2543.65 5084.36 2534.73 5031.01 2510.64Z" fill="#1873FB"/>
<path d="M4889.31 2570.41L4956.21 2142.12C4956.61 2139.6 4996.2 1888.87 5009.32 1810.09C5022.9 1728.75 5085.83 1727.81 5086.46 1727.81H5121.1L5161.62 1910.2L5081.8 2276.14L5008.15 2579.4L4889.31 2570.41Z" fill="#1873FB"/>
<path d="M5323.28 2528.14C5323.71 2519.05 5326.13 2510.16 5330.37 2502.1C5334.6 2494.05 5340.55 2487.02 5347.8 2481.51C5355.04 2476 5363.41 2472.15 5372.3 2470.23C5381.2 2468.3 5390.4 2468.35 5399.28 2470.37L5481.59 2354.34L5564.29 2387.17L5445.75 2549.4C5441.37 2564.09 5431.75 2576.66 5418.73 2584.73C5405.7 2592.81 5390.16 2595.82 5375.06 2593.19C5359.96 2590.57 5346.35 2582.5 5336.81 2570.51C5327.26 2558.51 5322.45 2543.43 5323.28 2528.13V2528.14Z" fill="#D07E65"/>
<path d="M5413.58 2428.35L5559.95 2182.14L5500.32 2023.09L5581.53 1806.46L5584.55 1807.75C5586.51 1808.59 5632.65 1829.19 5639.5 1902.95L5732.83 2196.34L5483.75 2519.55L5413.58 2428.35Z" fill="#1873FB"/>
<path d="M5293.96 1584.74C5378.35 1584.74 5446.75 1516.31 5446.75 1431.91C5446.75 1347.5 5378.35 1279.07 5293.96 1279.07C5209.57 1279.07 5141.17 1347.5 5141.17 1431.91C5141.17 1516.31 5209.57 1584.74 5293.96 1584.74Z" fill="#D07E65"/>
<path d="M5191.4 1357.45C5207.22 1376.17 5233.99 1381.45 5258.68 1383.6C5308.83 1388 5381.74 1380.86 5430.75 1369.55C5434.27 1403.45 5424.71 1440.02 5444.68 1467.91C5454.04 1434.14 5459.48 1399.41 5460.9 1364.39C5461.5 1349.38 5461.26 1333.84 5455.16 1320.06C5449.06 1306.27 5435.76 1294.57 5420.44 1294.45C5431.82 1285.81 5445.15 1280.11 5459.26 1277.85L5410.75 1253.46L5423.21 1240.67L5335.37 1235.29L5360.81 1219.13C5322.51 1213.87 5283.76 1212.65 5245.2 1215.49C5227.3 1216.81 5208.59 1219.33 5194.09 1229.71C5179.59 1240.08 5171.21 1260.7 5180.21 1275.92C5168.94 1277.78 5158.33 1282.47 5149.38 1289.58C5140.43 1296.68 5133.45 1305.95 5129.08 1316.5C5122.62 1332.9 5123.21 1351.11 5125.2 1368.58C5128.51 1396.52 5135 1423.99 5144.55 1450.46" fill="#04040D"/>
<rect width="1430" height="2886" transform="translate(2891 639)" fill="#04040D"/>
<path d="M3282.5 1702H3270V1832H3282.5V1837H3220V1832H3232.5V1711.25L3183 1839.5H3177.25L3121.75 1707.75V1832H3141.75V1837H3101.75V1832H3116.75V1702H3101.5V1697H3157.25L3196.25 1790.75L3232.5 1697H3282.5V1702Z" fill="#1873FB"/>
<path d="M3375.04 1832C3400.04 1832 3412.54 1817.83 3412.54 1789.5H3417.54V1837H3300.04V1832H3312.54V1702H3300.04V1697H3415.04V1739.5H3410.04C3410.04 1724.67 3407.04 1714.75 3401.04 1709.75C3395.21 1704.58 3385.71 1702 3372.54 1702H3350.04V1762H3360.04C3372.04 1762 3379.63 1760.5 3382.79 1757.5C3385.96 1754.5 3387.54 1748.5 3387.54 1739.5H3392.54V1789.5H3387.54C3387.54 1780.17 3385.96 1774.08 3382.79 1771.25C3379.63 1768.42 3372.04 1767 3360.04 1767H3350.04V1832H3375.04ZM3558.53 1739.5C3558.53 1724.67 3556.03 1714.75 3551.03 1709.75C3546.19 1704.58 3537.03 1702 3523.53 1702H3516.03V1832H3533.53V1837H3461.03V1832H3478.53V1702H3471.03C3457.69 1702 3448.53 1704.58 3443.53 1709.75C3438.69 1714.75 3436.28 1724.67 3436.28 1739.5H3431.28V1697H3563.53V1739.5H3558.53ZM3653.61 1832C3678.61 1832 3691.11 1817.83 3691.11 1789.5H3696.11V1837H3578.61V1832H3591.11V1702H3578.61V1697H3693.61V1739.5H3688.61C3688.61 1724.67 3685.61 1714.75 3679.61 1709.75C3673.78 1704.58 3664.28 1702 3651.11 1702H3628.61V1762H3638.61C3650.61 1762 3658.19 1760.5 3661.36 1757.5C3664.53 1754.5 3666.11 1748.5 3666.11 1739.5H3671.11V1789.5H3666.11C3666.11 1780.17 3664.53 1774.08 3661.36 1771.25C3658.19 1768.42 3650.61 1767 3638.61 1767H3628.61V1832H3653.61ZM3762.34 1702V1766.5C3779.01 1766.5 3790.17 1764.08 3795.84 1759.25C3801.51 1754.42 3804.34 1746.33 3804.34 1735C3804.34 1723.67 3801.42 1715.33 3795.59 1710C3789.76 1704.67 3778.67 1702 3762.34 1702ZM3860.59 1839.5H3849.59C3828.76 1839.5 3814.26 1835 3806.09 1826C3799.59 1819 3795.17 1809.75 3792.84 1798.25C3791.84 1793.42 3790.76 1789 3789.59 1785C3786.92 1776 3781.51 1771.5 3773.34 1771.5H3762.34V1832H3774.84V1837H3712.34V1832H3724.84V1702H3712.34V1697H3778.09C3820.59 1697 3841.84 1709.42 3841.84 1734.25C3841.84 1744.08 3838.26 1752.08 3831.09 1758.25C3823.92 1764.42 3814.76 1767.5 3803.59 1767.5V1769.25C3820.26 1769.25 3831.84 1780.25 3838.34 1802.25C3841.67 1813.92 3845.01 1822.25 3848.34 1827.25C3851.84 1832.08 3855.92 1834.5 3860.59 1834.5V1839.5ZM3948.04 1832C3973.04 1832 3985.54 1817.83 3985.54 1789.5H3990.54V1837H3873.04V1832H3885.54V1702H3873.04V1697H3988.04V1739.5H3983.04C3983.04 1724.67 3980.04 1714.75 3974.04 1709.75C3968.21 1704.58 3958.71 1702 3945.54 1702H3923.04V1762H3933.04C3945.04 1762 3952.63 1760.5 3955.79 1757.5C3958.96 1754.5 3960.54 1748.5 3960.54 1739.5H3965.54V1789.5H3960.54C3960.54 1780.17 3958.96 1774.08 3955.79 1771.25C3952.63 1768.42 3945.04 1767 3933.04 1767H3923.04V1832H3948.04ZM4071.77 1837H4009.27V1832H4021.77V1702H4009.27V1697H4071.77C4084.11 1697 4095.19 1699.08 4105.02 1703.25C4115.02 1707.25 4123.11 1712.58 4129.27 1719.25C4141.77 1733.08 4148.02 1748.75 4148.02 1766.25C4148.02 1789.92 4141.77 1807.67 4129.27 1819.5C4116.77 1831.17 4097.61 1837 4071.77 1837ZM4059.27 1832C4077.27 1832 4090.27 1827.17 4098.27 1817.5C4106.27 1807.67 4110.27 1791.75 4110.27 1769.75C4110.27 1747.58 4105.94 1730.75 4097.27 1719.25C4088.61 1707.75 4075.94 1702 4059.27 1702V1832Z" fill="white"/>
<path d="M3601.17 1543.12L3607.02 1548.06L3611.84 1542.11L3686.44 1449.95L3759.59 1416.68L3765.87 1413.83L3763.55 1407.33L3762.49 1404.37L3759.75 1396.68L3752.32 1400.06L3677.26 1434.2L3677.26 1434.2L3676.96 1434.34L3675.35 1435.07L3674.24 1436.45L3604.64 1522.42L3535.61 1464.05L3530.77 1459.95L3525.92 1464.05L3450.01 1528.23L3444.91 1532.54L3448.61 1538.11L3450.3 1540.67L3454.96 1547.68L3461.4 1542.25L3530.77 1483.59L3601.17 1543.12Z" fill="#828FBB" stroke="#828FBB" stroke-width="15"/>
<path d="M3454.46 1577.3C3470.46 1577.3 3483.43 1562.57 3483.43 1544.41C3483.43 1526.24 3470.46 1511.51 3454.46 1511.51C3438.47 1511.51 3425.5 1526.24 3425.5 1544.41C3425.5 1562.57 3438.47 1577.3 3454.46 1577.3Z" fill="#1873FB"/>
<path d="M3532.47 1511.51C3548.47 1511.51 3561.44 1496.78 3561.44 1478.61C3561.44 1460.44 3548.47 1445.71 3532.47 1445.71C3516.48 1445.71 3503.51 1460.44 3503.51 1478.61C3503.51 1496.78 3516.48 1511.51 3532.47 1511.51Z" fill="#1873FB"/>
<path d="M3610.49 1569.56C3626.48 1569.56 3639.45 1554.83 3639.45 1536.67C3639.45 1518.5 3626.48 1503.77 3610.49 1503.77C3594.49 1503.77 3581.52 1518.5 3581.52 1536.67C3581.52 1554.83 3594.49 1569.56 3610.49 1569.56Z" fill="#1873FB"/>
<path d="M3756.47 1439.52C3772.46 1439.52 3785.43 1424.79 3785.43 1406.62C3785.43 1388.45 3772.46 1373.72 3756.47 1373.72C3740.47 1373.72 3727.5 1388.45 3727.5 1406.62C3727.5 1424.79 3740.47 1439.52 3756.47 1439.52Z" fill="#1873FB"/>
<path d="M3668.41 1479C3684.41 1479 3697.38 1464.27 3697.38 1446.1C3697.38 1427.93 3684.41 1413.2 3668.41 1413.2C3652.42 1413.2 3639.45 1427.93 3639.45 1446.1C3639.45 1464.27 3652.42 1479 3668.41 1479Z" fill="#1873FB"/>
<circle cx="3606" cy="1470" r="215" stroke="white" stroke-width="14"/>
<path d="M2282.5 4669.5C2282.5 4716.72 2244.22 4755 2197 4755C2149.78 4755 2111.5 4716.72 2111.5 4669.5C2111.5 4622.28 2149.78 4584 2197 4584C2244.22 4584 2282.5 4622.28 2282.5 4669.5Z" fill="#6F0D0D"/>
<circle cx="85.5" cy="3439.5" r="85.5" fill="#85560F"/>
<circle cx="1526.5" cy="1049.5" r="85.5" fill="#2C4F83"/>
<circle cx="4939.5" cy="4110.5" r="85.5" fill="#235925"/>
<path d="M6159.5 1780.5C6159.5 1827.72 6121.22 1866 6074 1866C6026.78 1866 5988.5 1827.72 5988.5 1780.5C5988.5 1733.28 6026.78 1695 6074 1695C6121.22 1695 6159.5 1733.28 6159.5 1780.5Z" fill="#4E1F46"/>
<path d="M4869 522.5C4869 569.72 4830.72 608 4783.5 608C4736.28 608 4698 569.72 4698 522.5C4698 475.28 4736.28 437 4783.5 437C4830.72 437 4869 475.28 4869 522.5Z" fill="#293547"/>
<defs>
<linearGradient id="paint0_linear" x1="4237.22" y1="2731.33" x2="4834.97" y2="4278.14" gradientUnits="userSpaceOnUse">
<stop stop-color="#282844"/>
<stop offset="1" stop-color="#282844" stop-opacity="0"/>
</linearGradient>
<linearGradient id="paint1_linear" x1="2952.64" y1="1495" x2="3470.71" y2="3253.48" gradientUnits="userSpaceOnUse">
<stop offset="0.00653558" stop-color="#282844"/>
<stop offset="1" stop-color="#282844" stop-opacity="0"/>
</linearGradient>
</defs>
</svg>
